<svg width="273" height="267" viewBox="0 0 273 267" fill="none" xmlns="http://www.w3.org/2000/svg">
<path d="M148.845 51.1004C148.845 51.1004 130.565 91.2281 82.2221 82.0356C33.8792 72.843 4.75265 137.516 50.4568 161.098C96.161 184.679 64.4868 211.768 94.9684 225.606C129.613 241.332 142.532 188.745 168.055 193.629C224.385 204.408 259.229 185.921 243.822 161.043C216.776 117.371 197.139 118.979 205.119 90.7773C213.099 62.5756 168.031 19.2811 148.845 51.1004Z" fill="#FFCDC8"/>
<path d="M140.021 142.686C135.774 150.648 134.702 154.88 121.817 162.78C121.717 162.843 121.642 162.939 121.604 163.049C119.546 169.291 116.061 174.992 111.415 179.721C111.352 179.784 111.308 179.862 111.287 179.947C111.266 180.033 111.27 180.122 111.296 180.206C112.738 184.9 114.299 193.363 109.957 200.299C103.573 210.512 98.8455 204.346 99.8301 202.034C100.673 200.053 107.876 195.798 106.213 185.17C106.199 185.085 106.163 185.005 106.108 184.937C106.054 184.87 105.982 184.817 105.9 184.785C105.819 184.752 105.73 184.741 105.643 184.751C105.555 184.762 105.472 184.795 105.402 184.846C100.181 188.552 94.1884 191.086 87.8515 192.269C87.7811 192.28 87.714 192.306 87.6546 192.344C87.5952 192.383 87.5448 192.433 87.5069 192.492C87.4689 192.551 87.4441 192.618 87.4342 192.687C87.4243 192.756 87.4295 192.826 87.4495 192.893C89.0651 198.55 89.8295 207.391 83.0837 215.522C79.4823 219.761 74.7066 213.564 79.4823 209.341C82.4453 206.728 82.2168 199.213 80.8298 193.425C80.8033 193.313 80.7378 193.213 80.6443 193.143C80.5509 193.072 80.4353 193.036 80.3175 193.04C80.0418 193.047 79.7579 193.047 79.4823 193.047C69.7348 193.062 60.2581 189.911 52.5384 184.091C52.4678 184.037 52.384 184.002 52.2954 183.989C52.2067 183.976 52.1161 183.986 52.0327 184.018C51.9492 184.05 51.8756 184.103 51.8192 184.171C51.7628 184.239 51.7255 184.32 51.711 184.407C49.8589 196.368 57.2119 200.507 58.2597 203.575C59.4261 207.005 56.7466 210.057 53.4446 209.194C53.373 209.173 53.3062 209.139 53.2477 209.093C42.4827 201.186 43.4205 184.615 44.6026 176.638C44.6134 176.572 44.6098 176.506 44.5922 176.442C44.5745 176.378 44.5431 176.319 44.5001 176.268C38.4801 168.691 35.221 159.365 35.2403 149.77C35.2403 132.173 45.9816 117.028 61.4041 110.269C61.4051 110.269 61.4062 110.269 61.4071 110.268C61.4081 110.268 61.409 110.267 61.4097 110.267C61.4105 110.266 61.411 110.265 61.4114 110.264C61.4118 110.263 61.412 110.262 61.412 110.261C63.784 107.324 66.6763 103.17 67.1177 100.257C67.1323 100.158 67.1766 100.066 67.245 99.9922C67.3134 99.9182 67.4028 99.8659 67.5017 99.8419C67.6007 99.8179 67.7048 99.8233 67.8006 99.8574C67.8964 99.8915 67.9796 99.9528 68.0396 100.033C69.1745 101.529 70.9319 104.38 70.5458 107.386C70.5299 107.486 70.5222 107.587 70.5063 107.687C70.4748 107.857 70.4355 108.018 70.396 108.188C70.3566 108.319 70.3251 108.45 70.2778 108.581C70.829 108.131 71.3548 107.653 71.8532 107.147C73.0115 105.984 74.4774 104.234 75.1079 102.361C75.1377 102.261 75.1985 102.173 75.2818 102.108C75.3651 102.043 75.4669 102.005 75.5732 102C75.6794 101.994 75.7849 102.02 75.8752 102.075C75.9654 102.131 76.0359 102.212 76.077 102.308C76.4865 103.294 76.9675 104.674 77.133 106.084C77.1473 106.211 77.2093 106.328 77.307 106.412C77.4046 106.496 77.5309 106.541 77.661 106.539C78.2678 106.516 78.8746 106.501 79.4815 106.501C103.919 106.501 123.731 125.877 123.731 149.77C123.731 150.317 123.723 150.857 123.7 151.396C123.696 151.479 123.713 151.561 123.749 151.635C123.786 151.709 123.84 151.774 123.907 151.823C123.975 151.873 124.054 151.905 124.137 151.918C124.22 151.931 124.305 151.924 124.385 151.897C127.017 150.995 130.335 148.822 132.337 143.65C136.08 134.016 136.474 131.318 135.292 123.804C134.11 116.289 139.824 116.675 141.005 119.179C142.187 121.684 144.749 133.823 140.021 142.686Z" fill="#AF6152"/>
<path d="M62.1993 153.565C62.0486 153.565 61.9022 153.516 61.7829 153.426C61.6636 153.336 61.5782 153.21 61.5399 153.067C61.2428 151.798 61.1789 150.487 61.3514 149.196C61.7395 146.389 63.301 144.327 65.8674 143.23C67.5444 142.514 69.1297 142.472 70.5791 143.108C73.5497 144.41 74.8144 148.102 74.8668 148.259C74.9176 148.425 74.8999 148.605 74.8174 148.759C74.7349 148.913 74.5942 149.03 74.4252 149.084C74.2561 149.138 74.0722 149.125 73.9125 149.049C73.7528 148.972 73.6299 148.838 73.5701 148.674C73.5593 148.642 72.4344 145.38 70.0167 144.324C68.9343 143.851 67.7223 143.895 66.4142 144.454C64.2907 145.361 63.0444 147.003 62.7103 149.335C62.5576 150.467 62.6087 151.616 62.8612 152.73C62.9067 152.901 62.8807 153.083 62.7891 153.236C62.6975 153.389 62.5477 153.5 62.3726 153.544C62.316 153.558 62.2577 153.565 62.1993 153.565Z" fill="white"/>
<path d="M82.7727 147.452C82.6297 147.452 82.4904 147.408 82.3743 147.326C82.2583 147.245 82.1714 147.129 82.126 146.997C81.7451 145.754 81.5944 144.455 81.681 143.161C81.8823 140.347 83.3041 138.198 85.7926 136.946C87.4219 136.126 89.0034 135.984 90.4941 136.528C93.5381 137.636 95.0426 141.217 95.1051 141.368C95.1707 141.532 95.1676 141.715 95.0963 141.876C95.0251 142.038 94.8915 142.165 94.7247 142.231C94.5578 142.297 94.3712 142.295 94.2054 142.227C94.0395 142.159 93.9079 142.03 93.8391 141.867C93.8254 141.836 92.4906 138.676 90.0128 137.777C88.8984 137.373 87.689 137.493 86.4174 138.133C84.3588 139.169 83.2245 140.878 83.0459 143.214C82.9687 144.347 83.0957 145.484 83.4211 146.574C83.455 146.675 83.464 146.781 83.4475 146.886C83.431 146.99 83.3894 147.089 83.3262 147.175C83.2629 147.261 83.1798 147.33 83.0837 147.379C82.9875 147.427 82.881 147.452 82.773 147.452H82.7727Z" fill="white"/>
<path d="M81.0362 161.417C76.391 161.417 72.849 158.393 72.6717 158.24C72.6047 158.182 72.5501 158.111 72.5109 158.032C72.4718 157.953 72.4489 157.868 72.4436 157.78C72.4383 157.693 72.4506 157.605 72.48 157.522C72.5093 157.439 72.555 157.363 72.6145 157.297C72.6741 157.232 72.7462 157.178 72.8268 157.14C72.9074 157.102 72.995 157.079 73.0845 157.074C73.1739 157.069 73.2636 157.081 73.3483 157.11C73.433 157.138 73.5111 157.183 73.5781 157.241C73.6246 157.281 78.302 161.257 83.5681 159.722C88.8097 158.195 90.2472 151.686 90.2613 151.62C90.2995 151.448 90.4054 151.298 90.556 151.203C90.7066 151.107 90.8898 151.073 91.0657 151.108C91.2417 151.144 91.3963 151.246 91.496 151.392C91.5956 151.538 91.6324 151.717 91.5982 151.889C91.2736 153.238 90.7654 154.537 90.087 155.753C88.5885 158.455 86.4697 160.27 83.9581 161.002C83.0099 161.278 82.0256 161.418 81.0362 161.417Z" fill="white"/>
<path d="M228.159 131.707C228.101 133.156 227.95 134.6 227.708 136.031C224.418 155.717 205.442 169.06 185.314 165.842C165.194 162.625 151.543 144.066 154.834 124.38C155.044 123.125 155.321 121.897 155.649 120.699C140.721 110.784 141.593 91.6647 144.454 89.545C147.345 87.3986 150.5 89.2072 150.17 95.1447C149.831 103.767 155.259 110.898 158.269 114.004C165.318 100.261 180.895 91.958 197.228 94.5693C213.078 97.1032 224.902 109.154 227.61 123.769C230.564 122.719 235.782 119.687 240.009 111.07C240.6 109.352 240.763 108.09 240.794 107.329C240.815 106.619 241.099 105.94 241.593 105.419C242.517 104.473 244.154 103.469 246.268 105.01C246.749 105.362 247.137 105.821 247.399 106.349C247.66 106.878 247.789 107.46 247.773 108.047C247.641 112.704 243.83 124.036 228.159 131.707Z" fill="#D98364"/>
<path d="M206.201 138.091C205.269 143.666 197.429 147.052 188.695 145.656C179.953 144.258 173.623 138.607 174.555 133.031C174.732 131.993 175.147 131.007 175.768 130.148C175.938 129.915 176.193 129.755 176.48 129.7C176.767 129.646 177.064 129.701 177.311 129.854C180.44 131.77 185.393 133.46 191.108 134.374C196.367 135.215 201.234 135.227 204.776 134.57C205.064 134.516 205.363 134.572 205.61 134.728C205.857 134.883 206.033 135.126 206.103 135.405C206.316 136.285 206.349 137.198 206.201 138.091Z" fill="white"/>
<path d="M189.629 127.028C189.53 127.029 189.432 127.008 189.342 126.967C189.252 126.926 189.172 126.867 189.108 126.793C189.044 126.72 188.997 126.633 188.97 126.54C188.944 126.447 188.938 126.349 188.954 126.253C189.183 124.883 188.846 123.479 188.017 122.352C187.188 121.224 185.935 120.465 184.534 120.241C183.133 120.017 181.698 120.346 180.545 121.157C179.392 121.968 178.615 123.193 178.386 124.564C178.357 124.738 178.258 124.895 178.111 124.998C177.964 125.101 177.781 125.143 177.603 125.115C177.424 125.086 177.264 124.989 177.159 124.846C177.053 124.702 177.01 124.523 177.039 124.348C177.327 122.628 178.301 121.09 179.748 120.073C181.195 119.055 182.996 118.642 184.754 118.923C186.513 119.204 188.085 120.157 189.126 121.572C190.166 122.987 190.589 124.748 190.301 126.469C190.275 126.625 190.193 126.767 190.07 126.869C189.947 126.972 189.791 127.028 189.629 127.028Z" fill="white"/>
<path d="M206.001 129.646C205.902 129.646 205.804 129.625 205.714 129.584C205.625 129.543 205.545 129.484 205.481 129.41C205.417 129.337 205.37 129.25 205.343 129.157C205.316 129.064 205.311 128.966 205.327 128.871C205.55 127.502 205.21 126.103 204.381 124.98C203.552 123.857 202.301 123.1 200.903 122.877C199.505 122.653 198.074 122.981 196.922 123.788C195.77 124.594 194.992 125.815 194.759 127.181C194.745 127.268 194.713 127.351 194.666 127.426C194.619 127.501 194.557 127.565 194.484 127.617C194.411 127.668 194.329 127.705 194.241 127.725C194.154 127.745 194.063 127.748 193.975 127.734C193.886 127.72 193.801 127.689 193.725 127.643C193.649 127.596 193.582 127.536 193.53 127.464C193.478 127.393 193.44 127.312 193.42 127.227C193.4 127.141 193.397 127.052 193.412 126.966C193.704 125.25 194.68 123.718 196.125 122.705C197.571 121.691 199.368 121.28 201.123 121.561C202.878 121.841 204.448 122.791 205.489 124.202C206.529 125.612 206.955 127.369 206.674 129.086C206.648 129.242 206.566 129.384 206.442 129.487C206.319 129.589 206.163 129.646 206.001 129.646Z" fill="white"/>
</svg>
