<svg width="25" height="24" viewBox="0 0 25 24" fill="none" xmlns="http://www.w3.org/2000/svg">
<path d="M20 5.25H17.4012L16.1234 3.33375C16.055 3.23114 15.9623 3.147 15.8535 3.08879C15.7448 3.03057 15.6233 3.00007 15.5 3H9.5C9.37665 3.00007 9.25522 3.03057 9.14648 3.08879C9.03773 3.147 8.94502 3.23114 8.87656 3.33375L7.59781 5.25H5C4.40326 5.25 3.83097 5.48705 3.40901 5.90901C2.98705 6.33097 2.75 6.90326 2.75 7.5V18C2.75 18.5967 2.98705 19.169 3.40901 19.591C3.83097 20.0129 4.40326 20.25 5 20.25H20C20.5967 20.25 21.169 20.0129 21.591 19.591C22.0129 19.169 22.25 18.5967 22.25 18V7.5C22.25 6.90326 22.0129 6.33097 21.591 5.90901C21.169 5.48705 20.5967 5.25 20 5.25ZM20.75 18C20.75 18.1989 20.671 18.3897 20.5303 18.5303C20.3897 18.671 20.1989 18.75 20 18.75H5C4.80109 18.75 4.61032 18.671 4.46967 18.5303C4.32902 18.3897 4.25 18.1989 4.25 18V7.5C4.25 7.30109 4.32902 7.11032 4.46967 6.96967C4.61032 6.82902 4.80109 6.75 5 6.75H8C8.12351 6.75008 8.24512 6.71966 8.35405 6.66143C8.46297 6.60321 8.55583 6.51899 8.62438 6.41625L9.90125 4.5H15.0978L16.3756 6.41625C16.4442 6.51899 16.537 6.60321 16.646 6.66143C16.7549 6.71966 16.8765 6.75008 17 6.75H20C20.1989 6.75 20.3897 6.82902 20.5303 6.96967C20.671 7.11032 20.75 7.30109 20.75 7.5V18ZM12.5 8.25C11.6842 8.25 10.8866 8.49193 10.2083 8.94519C9.52992 9.39845 9.00121 10.0427 8.689 10.7964C8.37679 11.5502 8.2951 12.3796 8.45426 13.1797C8.61343 13.9799 9.00629 14.7149 9.58318 15.2918C10.1601 15.8687 10.8951 16.2616 11.6953 16.4207C12.4954 16.5799 13.3248 16.4982 14.0786 16.186C14.8323 15.8738 15.4766 15.3451 15.9298 14.6667C16.3831 13.9884 16.625 13.1908 16.625 12.375C16.6238 11.2814 16.1888 10.2329 15.4154 9.45955C14.6421 8.68624 13.5936 8.25124 12.5 8.25ZM12.5 15C11.9808 15 11.4733 14.846 11.0416 14.5576C10.6099 14.2692 10.2735 13.8592 10.0748 13.3795C9.87614 12.8999 9.82415 12.3721 9.92544 11.8629C10.0267 11.3537 10.2767 10.886 10.6438 10.5188C11.011 10.1517 11.4787 9.90172 11.9879 9.80044C12.4971 9.69915 13.0249 9.75114 13.5045 9.94982C13.9842 10.1485 14.3942 10.4849 14.6826 10.9166C14.971 11.3483 15.125 11.8558 15.125 12.375C15.125 13.0712 14.8484 13.7389 14.3562 14.2312C13.8639 14.7234 13.1962 15 12.5 15Z" fill="black"/>
</svg>
