<svg width="24" height="24" viewBox="0 0 24 24" fill="none" xmlns="http://www.w3.org/2000/svg">
<path d="M21.7566 17.5087C22.2748 16.4338 22.5291 15.2508 22.4983 14.058C22.4675 12.8651 22.1525 11.6968 21.5795 10.6501C21.0065 9.60341 20.1921 8.70854 19.2038 8.03984C18.2155 7.37113 17.0819 6.94789 15.8972 6.80527C15.503 5.88873 14.9299 5.06006 14.2114 4.36779C13.493 3.67551 12.6436 3.13353 11.7131 2.7736C10.7826 2.41367 9.78957 2.24302 8.79227 2.27164C7.79497 2.30026 6.81341 2.52758 5.90506 2.94028C4.9967 3.35298 4.17982 3.94277 3.50225 4.67511C2.82468 5.40745 2.30004 6.26762 1.95905 7.20525C1.61805 8.14288 1.46757 9.13912 1.5164 10.1356C1.56523 11.1321 1.8124 12.1089 2.24343 13.0087L1.56187 15.3253C1.48566 15.5839 1.48057 15.8582 1.54712 16.1195C1.61367 16.3808 1.7494 16.6193 1.94004 16.8099C2.13068 17.0005 2.36918 17.1363 2.63044 17.2028C2.8917 17.2694 3.16607 17.2643 3.42468 17.1881L5.74124 16.5065C6.48509 16.8639 7.28257 17.0967 8.10187 17.1956C8.49991 18.1282 9.08294 18.9704 9.81572 19.6713C10.5485 20.3723 11.4158 20.9173 12.3652 21.2735C13.3146 21.6297 14.3263 21.7897 15.3393 21.7438C16.3523 21.698 17.3455 21.4471 18.2587 21.0065L20.5753 21.6881C20.8338 21.7642 21.1081 21.7693 21.3692 21.7027C21.6304 21.6362 21.8688 21.5006 22.0594 21.3101C22.25 21.1196 22.3857 20.8812 22.4524 20.6201C22.519 20.359 22.5141 20.0848 22.4381 19.8262L21.7566 17.5087ZM5.81249 14.9531C5.74082 14.9532 5.66952 14.9633 5.60062 14.9831L2.99999 15.75L3.76593 13.1475C3.82041 12.9594 3.79921 12.7576 3.70687 12.585C3.02841 11.3161 2.8285 9.84573 3.14359 8.44182C3.45867 7.03792 4.26777 5.79398 5.42338 4.93678C6.57899 4.07958 8.00417 3.66619 9.43911 3.77198C10.874 3.87778 12.2232 4.4957 13.2406 5.5131C14.258 6.53051 14.8759 7.87965 14.9817 9.31459C15.0875 10.7495 14.6741 12.1747 13.8169 13.3303C12.9597 14.4859 11.7158 15.295 10.3119 15.6101C8.90796 15.9252 7.43757 15.7253 6.16874 15.0468C6.05963 14.9864 5.93719 14.9542 5.81249 14.9531ZM20.2303 17.6465L21 20.25L18.3975 19.484C18.2095 19.4295 18.0076 19.4507 17.835 19.5431C16.4539 20.2805 14.8394 20.4494 13.3356 20.0137C11.8318 19.578 10.5576 18.5721 9.78468 17.2106C10.8116 17.1034 11.8053 16.7852 12.7034 16.2758C13.6015 15.7665 14.3847 15.077 15.0038 14.2507C15.6229 13.4244 16.0645 12.4791 16.301 11.4741C16.5375 10.469 16.5638 9.42593 16.3781 8.41027C17.2729 8.62117 18.1072 9.03485 18.8167 9.61936C19.5262 10.2039 20.0919 10.9436 20.4701 11.7814C20.8483 12.6193 21.029 13.5328 20.9982 14.4516C20.9673 15.3703 20.7258 16.2697 20.2922 17.0803C20.1988 17.2539 20.1776 17.4573 20.2331 17.6465H20.2303Z" fill="black"/>
</svg>
