<svg width="24" height="24" viewBox="0 0 24 24" fill="none" xmlns="http://www.w3.org/2000/svg">
<g clip-path="url(#clip0_315_4051)">
<path d="M21.5934 13.2244C21.3144 13.0096 20.9895 12.8622 20.6442 12.7934C20.2988 12.7246 19.9422 12.7364 19.6022 12.8278L15.6797 13.7297C15.7709 13.3442 15.7738 12.943 15.6879 12.5563C15.6021 12.1695 15.4298 11.8072 15.1841 11.4965C14.9383 11.1858 14.6254 10.9347 14.2688 10.7622C13.9122 10.5896 13.5212 10.5 13.125 10.5H8.43188C8.03775 10.499 7.64733 10.5761 7.28319 10.7269C6.91904 10.8777 6.58838 11.0991 6.31031 11.3784L4.18969 13.5H1.5C1.10218 13.5 0.720644 13.658 0.43934 13.9393C0.158035 14.2206 0 14.6022 0 15L0 18.75C0 19.1478 0.158035 19.5294 0.43934 19.8107C0.720644 20.092 1.10218 20.25 1.5 20.25H11.25C11.3113 20.25 11.3724 20.2425 11.4319 20.2275L17.4319 18.7275C17.4701 18.7184 17.5075 18.7058 17.5434 18.69L21.1875 17.1394L21.2288 17.1206C21.579 16.9456 21.8789 16.6843 22.1002 16.3614C22.3215 16.0385 22.457 15.6645 22.4939 15.2747C22.5307 14.8849 22.4678 14.4922 22.3109 14.1335C22.154 13.7748 21.9084 13.4619 21.5972 13.2244H21.5934ZM1.5 15H3.75V18.75H1.5V15ZM20.5716 15.7697L17.0091 17.2866L11.1562 18.75H5.25V14.5603L7.37156 12.4397C7.51035 12.2998 7.67555 12.1889 7.85758 12.1134C8.0396 12.0379 8.23482 11.9994 8.43188 12H13.125C13.4234 12 13.7095 12.1185 13.9205 12.3295C14.1315 12.5405 14.25 12.8266 14.25 13.125C14.25 13.4234 14.1315 13.7095 13.9205 13.9205C13.7095 14.1315 13.4234 14.25 13.125 14.25H10.5C10.3011 14.25 10.1103 14.329 9.96967 14.4697C9.82902 14.6103 9.75 14.8011 9.75 15C9.75 15.1989 9.82902 15.3897 9.96967 15.5303C10.1103 15.671 10.3011 15.75 10.5 15.75H13.5C13.5565 15.7498 13.6127 15.7436 13.6678 15.7313L19.9491 14.2866L19.9781 14.2791C20.1699 14.2258 20.3745 14.2454 20.5527 14.334C20.7309 14.4226 20.87 14.5739 20.9434 14.7589C21.0167 14.9439 21.0189 15.1495 20.9498 15.3361C20.8806 15.5227 20.7449 15.6771 20.5687 15.7697H20.5716ZM15.375 9C15.5603 9.00021 15.7453 8.98516 15.9281 8.955C16.1338 9.56582 16.51 10.105 17.0124 10.5088C17.5147 10.9125 18.1222 11.164 18.763 11.2335C19.4037 11.3029 20.051 11.1875 20.6282 10.9008C21.2054 10.614 21.6884 10.168 22.0202 9.61547C22.352 9.06291 22.5186 8.42691 22.5004 7.78266C22.4821 7.1384 22.2798 6.51284 21.9173 5.97993C21.5548 5.44703 21.0473 5.02905 20.4548 4.77543C19.8623 4.52181 19.2096 4.44315 18.5737 4.54875C18.3757 3.96023 18.0192 3.43775 17.5434 3.03879C17.0676 2.63984 16.4909 2.37988 15.8769 2.28754C15.2629 2.19519 14.6353 2.27403 14.0631 2.51537C13.491 2.75672 12.9966 3.15123 12.6342 3.65547C12.2719 4.15971 12.0556 4.75414 12.0093 5.37335C11.963 5.99256 12.0885 6.61254 12.3718 7.16506C12.6552 7.71759 13.0854 8.18123 13.6153 8.50497C14.1452 8.82872 14.7541 9.00001 15.375 9ZM21 7.875C21 8.24584 20.89 8.60835 20.684 8.9167C20.478 9.22504 20.1851 9.46536 19.8425 9.60728C19.4999 9.74919 19.1229 9.78632 18.7592 9.71397C18.3955 9.64163 18.0614 9.46305 17.7992 9.20083C17.537 8.9386 17.3584 8.60451 17.286 8.2408C17.2137 7.87708 17.2508 7.50008 17.3927 7.15747C17.5346 6.81486 17.775 6.52202 18.0833 6.316C18.3916 6.10997 18.7542 6 19.125 6C19.6223 6 20.0992 6.19755 20.4508 6.54918C20.8025 6.90081 21 7.37772 21 7.875ZM15.375 3.75C15.784 3.75021 16.1818 3.88416 16.5076 4.13145C16.8334 4.37874 17.0695 4.72579 17.1797 5.11969C16.7956 5.38997 16.4721 5.73744 16.2299 6.13989C15.9878 6.54234 15.8323 6.9909 15.7734 7.45688C15.6425 7.48515 15.509 7.49961 15.375 7.5C14.8777 7.5 14.4008 7.30246 14.0492 6.95083C13.6975 6.5992 13.5 6.12228 13.5 5.625C13.5 5.12772 13.6975 4.65081 14.0492 4.29918C14.4008 3.94755 14.8777 3.75 15.375 3.75Z" fill="black"/>
</g>
<defs>
<clipPath id="clip0_315_4051">
<rect width="24" height="24" fill="white"/>
</clipPath>
</defs>
</svg>
